%TF.GenerationSoftware,KiCad,Pcbnew,9.0.3*%
%TF.CreationDate,2026-06-25T19:52:52-04:00*%
%TF.ProjectId,SOP8HatZero,534f5038-4861-4745-9a65-726f2e6b6963,rev?*%
%TF.SameCoordinates,Original*%
%TF.FileFunction,Legend,Top*%
%TF.FilePolarity,Positive*%
%FSLAX46Y46*%
G04 Gerber Fmt 4.6, Leading zero omitted, Abs format (unit mm)*
G04 Created by KiCad (PCBNEW 9.0.3) date 2026-06-25 19:52:52*
%MOMM*%
%LPD*%
G01*
G04 APERTURE LIST*
%ADD10C,0.150000*%
%ADD11C,0.250000*%
%ADD12C,0.254000*%
%ADD13C,0.120000*%
%ADD14C,0.200000*%
G04 APERTURE END LIST*
D10*
X58015588Y-37869819D02*
X57444160Y-37869819D01*
X57729874Y-37869819D02*
X57729874Y-36869819D01*
X57729874Y-36869819D02*
X57634636Y-37012676D01*
X57634636Y-37012676D02*
X57539398Y-37107914D01*
X57539398Y-37107914D02*
X57444160Y-37155533D01*
X58872731Y-36869819D02*
X58682255Y-36869819D01*
X58682255Y-36869819D02*
X58587017Y-36917438D01*
X58587017Y-36917438D02*
X58539398Y-36965057D01*
X58539398Y-36965057D02*
X58444160Y-37107914D01*
X58444160Y-37107914D02*
X58396541Y-37298390D01*
X58396541Y-37298390D02*
X58396541Y-37679342D01*
X58396541Y-37679342D02*
X58444160Y-37774580D01*
X58444160Y-37774580D02*
X58491779Y-37822200D01*
X58491779Y-37822200D02*
X58587017Y-37869819D01*
X58587017Y-37869819D02*
X58777493Y-37869819D01*
X58777493Y-37869819D02*
X58872731Y-37822200D01*
X58872731Y-37822200D02*
X58920350Y-37774580D01*
X58920350Y-37774580D02*
X58967969Y-37679342D01*
X58967969Y-37679342D02*
X58967969Y-37441247D01*
X58967969Y-37441247D02*
X58920350Y-37346009D01*
X58920350Y-37346009D02*
X58872731Y-37298390D01*
X58872731Y-37298390D02*
X58777493Y-37250771D01*
X58777493Y-37250771D02*
X58587017Y-37250771D01*
X58587017Y-37250771D02*
X58491779Y-37298390D01*
X58491779Y-37298390D02*
X58444160Y-37346009D01*
X58444160Y-37346009D02*
X58396541Y-37441247D01*
X59396541Y-37488866D02*
X60158446Y-37488866D01*
X60634636Y-37869819D02*
X60634636Y-36869819D01*
X60634636Y-37250771D02*
X60729874Y-37203152D01*
X60729874Y-37203152D02*
X60920350Y-37203152D01*
X60920350Y-37203152D02*
X61015588Y-37250771D01*
X61015588Y-37250771D02*
X61063207Y-37298390D01*
X61063207Y-37298390D02*
X61110826Y-37393628D01*
X61110826Y-37393628D02*
X61110826Y-37679342D01*
X61110826Y-37679342D02*
X61063207Y-37774580D01*
X61063207Y-37774580D02*
X61015588Y-37822200D01*
X61015588Y-37822200D02*
X60920350Y-37869819D01*
X60920350Y-37869819D02*
X60729874Y-37869819D01*
X60729874Y-37869819D02*
X60634636Y-37822200D01*
X61539398Y-37869819D02*
X61539398Y-37203152D01*
X61539398Y-36869819D02*
X61491779Y-36917438D01*
X61491779Y-36917438D02*
X61539398Y-36965057D01*
X61539398Y-36965057D02*
X61587017Y-36917438D01*
X61587017Y-36917438D02*
X61539398Y-36869819D01*
X61539398Y-36869819D02*
X61539398Y-36965057D01*
X61872731Y-37203152D02*
X62253683Y-37203152D01*
X62015588Y-36869819D02*
X62015588Y-37726961D01*
X62015588Y-37726961D02*
X62063207Y-37822200D01*
X62063207Y-37822200D02*
X62158445Y-37869819D01*
X62158445Y-37869819D02*
X62253683Y-37869819D01*
X42732436Y-38277741D02*
X42161008Y-38277741D01*
X42446722Y-38277741D02*
X42446722Y-37277741D01*
X42446722Y-37277741D02*
X42351484Y-37420598D01*
X42351484Y-37420598D02*
X42256246Y-37515836D01*
X42256246Y-37515836D02*
X42161008Y-37563455D01*
X71920350Y-45369819D02*
X71920350Y-44369819D01*
X71920350Y-45322200D02*
X71825112Y-45369819D01*
X71825112Y-45369819D02*
X71634636Y-45369819D01*
X71634636Y-45369819D02*
X71539398Y-45322200D01*
X71539398Y-45322200D02*
X71491779Y-45274580D01*
X71491779Y-45274580D02*
X71444160Y-45179342D01*
X71444160Y-45179342D02*
X71444160Y-44893628D01*
X71444160Y-44893628D02*
X71491779Y-44798390D01*
X71491779Y-44798390D02*
X71539398Y-44750771D01*
X71539398Y-44750771D02*
X71634636Y-44703152D01*
X71634636Y-44703152D02*
X71825112Y-44703152D01*
X71825112Y-44703152D02*
X71920350Y-44750771D01*
X72396541Y-45369819D02*
X72396541Y-44703152D01*
X72396541Y-44369819D02*
X72348922Y-44417438D01*
X72348922Y-44417438D02*
X72396541Y-44465057D01*
X72396541Y-44465057D02*
X72444160Y-44417438D01*
X72444160Y-44417438D02*
X72396541Y-44369819D01*
X72396541Y-44369819D02*
X72396541Y-44465057D01*
X72825112Y-45322200D02*
X72920350Y-45369819D01*
X72920350Y-45369819D02*
X73110826Y-45369819D01*
X73110826Y-45369819D02*
X73206064Y-45322200D01*
X73206064Y-45322200D02*
X73253683Y-45226961D01*
X73253683Y-45226961D02*
X73253683Y-45179342D01*
X73253683Y-45179342D02*
X73206064Y-45084104D01*
X73206064Y-45084104D02*
X73110826Y-45036485D01*
X73110826Y-45036485D02*
X72967969Y-45036485D01*
X72967969Y-45036485D02*
X72872731Y-44988866D01*
X72872731Y-44988866D02*
X72825112Y-44893628D01*
X72825112Y-44893628D02*
X72825112Y-44846009D01*
X72825112Y-44846009D02*
X72872731Y-44750771D01*
X72872731Y-44750771D02*
X72967969Y-44703152D01*
X72967969Y-44703152D02*
X73110826Y-44703152D01*
X73110826Y-44703152D02*
X73206064Y-44750771D01*
X74110826Y-45369819D02*
X74110826Y-44846009D01*
X74110826Y-44846009D02*
X74063207Y-44750771D01*
X74063207Y-44750771D02*
X73967969Y-44703152D01*
X73967969Y-44703152D02*
X73777493Y-44703152D01*
X73777493Y-44703152D02*
X73682255Y-44750771D01*
X74110826Y-45322200D02*
X74015588Y-45369819D01*
X74015588Y-45369819D02*
X73777493Y-45369819D01*
X73777493Y-45369819D02*
X73682255Y-45322200D01*
X73682255Y-45322200D02*
X73634636Y-45226961D01*
X73634636Y-45226961D02*
X73634636Y-45131723D01*
X73634636Y-45131723D02*
X73682255Y-45036485D01*
X73682255Y-45036485D02*
X73777493Y-44988866D01*
X73777493Y-44988866D02*
X74015588Y-44988866D01*
X74015588Y-44988866D02*
X74110826Y-44941247D01*
X74587017Y-45369819D02*
X74587017Y-44369819D01*
X74587017Y-44750771D02*
X74682255Y-44703152D01*
X74682255Y-44703152D02*
X74872731Y-44703152D01*
X74872731Y-44703152D02*
X74967969Y-44750771D01*
X74967969Y-44750771D02*
X75015588Y-44798390D01*
X75015588Y-44798390D02*
X75063207Y-44893628D01*
X75063207Y-44893628D02*
X75063207Y-45179342D01*
X75063207Y-45179342D02*
X75015588Y-45274580D01*
X75015588Y-45274580D02*
X74967969Y-45322200D01*
X74967969Y-45322200D02*
X74872731Y-45369819D01*
X74872731Y-45369819D02*
X74682255Y-45369819D01*
X74682255Y-45369819D02*
X74587017Y-45322200D01*
X75634636Y-45369819D02*
X75539398Y-45322200D01*
X75539398Y-45322200D02*
X75491779Y-45226961D01*
X75491779Y-45226961D02*
X75491779Y-44369819D01*
X76396541Y-45322200D02*
X76301303Y-45369819D01*
X76301303Y-45369819D02*
X76110827Y-45369819D01*
X76110827Y-45369819D02*
X76015589Y-45322200D01*
X76015589Y-45322200D02*
X75967970Y-45226961D01*
X75967970Y-45226961D02*
X75967970Y-44846009D01*
X75967970Y-44846009D02*
X76015589Y-44750771D01*
X76015589Y-44750771D02*
X76110827Y-44703152D01*
X76110827Y-44703152D02*
X76301303Y-44703152D01*
X76301303Y-44703152D02*
X76396541Y-44750771D01*
X76396541Y-44750771D02*
X76444160Y-44846009D01*
X76444160Y-44846009D02*
X76444160Y-44941247D01*
X76444160Y-44941247D02*
X75967970Y-45036485D01*
X71872731Y-37822200D02*
X71777493Y-37869819D01*
X71777493Y-37869819D02*
X71587017Y-37869819D01*
X71587017Y-37869819D02*
X71491779Y-37822200D01*
X71491779Y-37822200D02*
X71444160Y-37726961D01*
X71444160Y-37726961D02*
X71444160Y-37346009D01*
X71444160Y-37346009D02*
X71491779Y-37250771D01*
X71491779Y-37250771D02*
X71587017Y-37203152D01*
X71587017Y-37203152D02*
X71777493Y-37203152D01*
X71777493Y-37203152D02*
X71872731Y-37250771D01*
X71872731Y-37250771D02*
X71920350Y-37346009D01*
X71920350Y-37346009D02*
X71920350Y-37441247D01*
X71920350Y-37441247D02*
X71444160Y-37536485D01*
X72348922Y-37203152D02*
X72348922Y-37869819D01*
X72348922Y-37298390D02*
X72396541Y-37250771D01*
X72396541Y-37250771D02*
X72491779Y-37203152D01*
X72491779Y-37203152D02*
X72634636Y-37203152D01*
X72634636Y-37203152D02*
X72729874Y-37250771D01*
X72729874Y-37250771D02*
X72777493Y-37346009D01*
X72777493Y-37346009D02*
X72777493Y-37869819D01*
X73682255Y-37869819D02*
X73682255Y-37346009D01*
X73682255Y-37346009D02*
X73634636Y-37250771D01*
X73634636Y-37250771D02*
X73539398Y-37203152D01*
X73539398Y-37203152D02*
X73348922Y-37203152D01*
X73348922Y-37203152D02*
X73253684Y-37250771D01*
X73682255Y-37822200D02*
X73587017Y-37869819D01*
X73587017Y-37869819D02*
X73348922Y-37869819D01*
X73348922Y-37869819D02*
X73253684Y-37822200D01*
X73253684Y-37822200D02*
X73206065Y-37726961D01*
X73206065Y-37726961D02*
X73206065Y-37631723D01*
X73206065Y-37631723D02*
X73253684Y-37536485D01*
X73253684Y-37536485D02*
X73348922Y-37488866D01*
X73348922Y-37488866D02*
X73587017Y-37488866D01*
X73587017Y-37488866D02*
X73682255Y-37441247D01*
X74158446Y-37869819D02*
X74158446Y-36869819D01*
X74158446Y-37250771D02*
X74253684Y-37203152D01*
X74253684Y-37203152D02*
X74444160Y-37203152D01*
X74444160Y-37203152D02*
X74539398Y-37250771D01*
X74539398Y-37250771D02*
X74587017Y-37298390D01*
X74587017Y-37298390D02*
X74634636Y-37393628D01*
X74634636Y-37393628D02*
X74634636Y-37679342D01*
X74634636Y-37679342D02*
X74587017Y-37774580D01*
X74587017Y-37774580D02*
X74539398Y-37822200D01*
X74539398Y-37822200D02*
X74444160Y-37869819D01*
X74444160Y-37869819D02*
X74253684Y-37869819D01*
X74253684Y-37869819D02*
X74158446Y-37822200D01*
X75206065Y-37869819D02*
X75110827Y-37822200D01*
X75110827Y-37822200D02*
X75063208Y-37726961D01*
X75063208Y-37726961D02*
X75063208Y-36869819D01*
X75967970Y-37822200D02*
X75872732Y-37869819D01*
X75872732Y-37869819D02*
X75682256Y-37869819D01*
X75682256Y-37869819D02*
X75587018Y-37822200D01*
X75587018Y-37822200D02*
X75539399Y-37726961D01*
X75539399Y-37726961D02*
X75539399Y-37346009D01*
X75539399Y-37346009D02*
X75587018Y-37250771D01*
X75587018Y-37250771D02*
X75682256Y-37203152D01*
X75682256Y-37203152D02*
X75872732Y-37203152D01*
X75872732Y-37203152D02*
X75967970Y-37250771D01*
X75967970Y-37250771D02*
X76015589Y-37346009D01*
X76015589Y-37346009D02*
X76015589Y-37441247D01*
X76015589Y-37441247D02*
X75539399Y-37536485D01*
X18980094Y-38326332D02*
X18408666Y-38326332D01*
X18694380Y-38326332D02*
X18694380Y-37326332D01*
X18694380Y-37326332D02*
X18599142Y-37469189D01*
X18599142Y-37469189D02*
X18503904Y-37564427D01*
X18503904Y-37564427D02*
X18408666Y-37612046D01*
X58479636Y-44798390D02*
X58384398Y-44750771D01*
X58384398Y-44750771D02*
X58336779Y-44703152D01*
X58336779Y-44703152D02*
X58289160Y-44607914D01*
X58289160Y-44607914D02*
X58289160Y-44560295D01*
X58289160Y-44560295D02*
X58336779Y-44465057D01*
X58336779Y-44465057D02*
X58384398Y-44417438D01*
X58384398Y-44417438D02*
X58479636Y-44369819D01*
X58479636Y-44369819D02*
X58670112Y-44369819D01*
X58670112Y-44369819D02*
X58765350Y-44417438D01*
X58765350Y-44417438D02*
X58812969Y-44465057D01*
X58812969Y-44465057D02*
X58860588Y-44560295D01*
X58860588Y-44560295D02*
X58860588Y-44607914D01*
X58860588Y-44607914D02*
X58812969Y-44703152D01*
X58812969Y-44703152D02*
X58765350Y-44750771D01*
X58765350Y-44750771D02*
X58670112Y-44798390D01*
X58670112Y-44798390D02*
X58479636Y-44798390D01*
X58479636Y-44798390D02*
X58384398Y-44846009D01*
X58384398Y-44846009D02*
X58336779Y-44893628D01*
X58336779Y-44893628D02*
X58289160Y-44988866D01*
X58289160Y-44988866D02*
X58289160Y-45179342D01*
X58289160Y-45179342D02*
X58336779Y-45274580D01*
X58336779Y-45274580D02*
X58384398Y-45322200D01*
X58384398Y-45322200D02*
X58479636Y-45369819D01*
X58479636Y-45369819D02*
X58670112Y-45369819D01*
X58670112Y-45369819D02*
X58765350Y-45322200D01*
X58765350Y-45322200D02*
X58812969Y-45274580D01*
X58812969Y-45274580D02*
X58860588Y-45179342D01*
X58860588Y-45179342D02*
X58860588Y-44988866D01*
X58860588Y-44988866D02*
X58812969Y-44893628D01*
X58812969Y-44893628D02*
X58765350Y-44846009D01*
X58765350Y-44846009D02*
X58670112Y-44798390D01*
X59289160Y-44988866D02*
X60051065Y-44988866D01*
X60527255Y-45369819D02*
X60527255Y-44369819D01*
X60527255Y-44750771D02*
X60622493Y-44703152D01*
X60622493Y-44703152D02*
X60812969Y-44703152D01*
X60812969Y-44703152D02*
X60908207Y-44750771D01*
X60908207Y-44750771D02*
X60955826Y-44798390D01*
X60955826Y-44798390D02*
X61003445Y-44893628D01*
X61003445Y-44893628D02*
X61003445Y-45179342D01*
X61003445Y-45179342D02*
X60955826Y-45274580D01*
X60955826Y-45274580D02*
X60908207Y-45322200D01*
X60908207Y-45322200D02*
X60812969Y-45369819D01*
X60812969Y-45369819D02*
X60622493Y-45369819D01*
X60622493Y-45369819D02*
X60527255Y-45322200D01*
X61432017Y-45369819D02*
X61432017Y-44703152D01*
X61432017Y-44369819D02*
X61384398Y-44417438D01*
X61384398Y-44417438D02*
X61432017Y-44465057D01*
X61432017Y-44465057D02*
X61479636Y-44417438D01*
X61479636Y-44417438D02*
X61432017Y-44369819D01*
X61432017Y-44369819D02*
X61432017Y-44465057D01*
X61765350Y-44703152D02*
X62146302Y-44703152D01*
X61908207Y-44369819D02*
X61908207Y-45226961D01*
X61908207Y-45226961D02*
X61955826Y-45322200D01*
X61955826Y-45322200D02*
X62051064Y-45369819D01*
X62051064Y-45369819D02*
X62146302Y-45369819D01*
D11*
X22688282Y-50337476D02*
X22497806Y-50242238D01*
X22497806Y-50242238D02*
X22212092Y-50242238D01*
X22212092Y-50242238D02*
X21926377Y-50337476D01*
X21926377Y-50337476D02*
X21735901Y-50527952D01*
X21735901Y-50527952D02*
X21640663Y-50718428D01*
X21640663Y-50718428D02*
X21545425Y-51099380D01*
X21545425Y-51099380D02*
X21545425Y-51385095D01*
X21545425Y-51385095D02*
X21640663Y-51766047D01*
X21640663Y-51766047D02*
X21735901Y-51956523D01*
X21735901Y-51956523D02*
X21926377Y-52147000D01*
X21926377Y-52147000D02*
X22212092Y-52242238D01*
X22212092Y-52242238D02*
X22402568Y-52242238D01*
X22402568Y-52242238D02*
X22688282Y-52147000D01*
X22688282Y-52147000D02*
X22783520Y-52051761D01*
X22783520Y-52051761D02*
X22783520Y-51385095D01*
X22783520Y-51385095D02*
X22402568Y-51385095D01*
X23640663Y-52242238D02*
X23640663Y-50242238D01*
X23640663Y-50242238D02*
X24307330Y-51670809D01*
X24307330Y-51670809D02*
X24973996Y-50242238D01*
X24973996Y-50242238D02*
X24973996Y-52242238D01*
X28593044Y-52051761D02*
X28497806Y-52147000D01*
X28497806Y-52147000D02*
X28212092Y-52242238D01*
X28212092Y-52242238D02*
X28021616Y-52242238D01*
X28021616Y-52242238D02*
X27735901Y-52147000D01*
X27735901Y-52147000D02*
X27545425Y-51956523D01*
X27545425Y-51956523D02*
X27450187Y-51766047D01*
X27450187Y-51766047D02*
X27354949Y-51385095D01*
X27354949Y-51385095D02*
X27354949Y-51099380D01*
X27354949Y-51099380D02*
X27450187Y-50718428D01*
X27450187Y-50718428D02*
X27545425Y-50527952D01*
X27545425Y-50527952D02*
X27735901Y-50337476D01*
X27735901Y-50337476D02*
X28021616Y-50242238D01*
X28021616Y-50242238D02*
X28212092Y-50242238D01*
X28212092Y-50242238D02*
X28497806Y-50337476D01*
X28497806Y-50337476D02*
X28593044Y-50432714D01*
X29735901Y-52242238D02*
X29545425Y-52147000D01*
X29545425Y-52147000D02*
X29450187Y-51956523D01*
X29450187Y-51956523D02*
X29450187Y-50242238D01*
X31354949Y-50908904D02*
X31354949Y-52242238D01*
X30497806Y-50908904D02*
X30497806Y-51956523D01*
X30497806Y-51956523D02*
X30593044Y-52147000D01*
X30593044Y-52147000D02*
X30783520Y-52242238D01*
X30783520Y-52242238D02*
X31069235Y-52242238D01*
X31069235Y-52242238D02*
X31259711Y-52147000D01*
X31259711Y-52147000D02*
X31354949Y-52051761D01*
X32212092Y-52147000D02*
X32402568Y-52242238D01*
X32402568Y-52242238D02*
X32783520Y-52242238D01*
X32783520Y-52242238D02*
X32973997Y-52147000D01*
X32973997Y-52147000D02*
X33069235Y-51956523D01*
X33069235Y-51956523D02*
X33069235Y-51861285D01*
X33069235Y-51861285D02*
X32973997Y-51670809D01*
X32973997Y-51670809D02*
X32783520Y-51575571D01*
X32783520Y-51575571D02*
X32497806Y-51575571D01*
X32497806Y-51575571D02*
X32307330Y-51480333D01*
X32307330Y-51480333D02*
X32212092Y-51289857D01*
X32212092Y-51289857D02*
X32212092Y-51194619D01*
X32212092Y-51194619D02*
X32307330Y-51004142D01*
X32307330Y-51004142D02*
X32497806Y-50908904D01*
X32497806Y-50908904D02*
X32783520Y-50908904D01*
X32783520Y-50908904D02*
X32973997Y-51004142D01*
X33640664Y-50908904D02*
X34402568Y-50908904D01*
X33926378Y-50242238D02*
X33926378Y-51956523D01*
X33926378Y-51956523D02*
X34021616Y-52147000D01*
X34021616Y-52147000D02*
X34212092Y-52242238D01*
X34212092Y-52242238D02*
X34402568Y-52242238D01*
X35831140Y-52147000D02*
X35640664Y-52242238D01*
X35640664Y-52242238D02*
X35259711Y-52242238D01*
X35259711Y-52242238D02*
X35069235Y-52147000D01*
X35069235Y-52147000D02*
X34973997Y-51956523D01*
X34973997Y-51956523D02*
X34973997Y-51194619D01*
X34973997Y-51194619D02*
X35069235Y-51004142D01*
X35069235Y-51004142D02*
X35259711Y-50908904D01*
X35259711Y-50908904D02*
X35640664Y-50908904D01*
X35640664Y-50908904D02*
X35831140Y-51004142D01*
X35831140Y-51004142D02*
X35926378Y-51194619D01*
X35926378Y-51194619D02*
X35926378Y-51385095D01*
X35926378Y-51385095D02*
X34973997Y-51575571D01*
X36783521Y-52242238D02*
X36783521Y-50908904D01*
X36783521Y-51289857D02*
X36878759Y-51099380D01*
X36878759Y-51099380D02*
X36973997Y-51004142D01*
X36973997Y-51004142D02*
X37164473Y-50908904D01*
X37164473Y-50908904D02*
X37354950Y-50908904D01*
X40688283Y-52051761D02*
X40593045Y-52147000D01*
X40593045Y-52147000D02*
X40307331Y-52242238D01*
X40307331Y-52242238D02*
X40116855Y-52242238D01*
X40116855Y-52242238D02*
X39831140Y-52147000D01*
X39831140Y-52147000D02*
X39640664Y-51956523D01*
X39640664Y-51956523D02*
X39545426Y-51766047D01*
X39545426Y-51766047D02*
X39450188Y-51385095D01*
X39450188Y-51385095D02*
X39450188Y-51099380D01*
X39450188Y-51099380D02*
X39545426Y-50718428D01*
X39545426Y-50718428D02*
X39640664Y-50527952D01*
X39640664Y-50527952D02*
X39831140Y-50337476D01*
X39831140Y-50337476D02*
X40116855Y-50242238D01*
X40116855Y-50242238D02*
X40307331Y-50242238D01*
X40307331Y-50242238D02*
X40593045Y-50337476D01*
X40593045Y-50337476D02*
X40688283Y-50432714D01*
X41831140Y-52242238D02*
X41640664Y-52147000D01*
X41640664Y-52147000D02*
X41545426Y-52051761D01*
X41545426Y-52051761D02*
X41450188Y-51861285D01*
X41450188Y-51861285D02*
X41450188Y-51289857D01*
X41450188Y-51289857D02*
X41545426Y-51099380D01*
X41545426Y-51099380D02*
X41640664Y-51004142D01*
X41640664Y-51004142D02*
X41831140Y-50908904D01*
X41831140Y-50908904D02*
X42116855Y-50908904D01*
X42116855Y-50908904D02*
X42307331Y-51004142D01*
X42307331Y-51004142D02*
X42402569Y-51099380D01*
X42402569Y-51099380D02*
X42497807Y-51289857D01*
X42497807Y-51289857D02*
X42497807Y-51861285D01*
X42497807Y-51861285D02*
X42402569Y-52051761D01*
X42402569Y-52051761D02*
X42307331Y-52147000D01*
X42307331Y-52147000D02*
X42116855Y-52242238D01*
X42116855Y-52242238D02*
X41831140Y-52242238D01*
X43354950Y-50908904D02*
X43354950Y-52242238D01*
X43354950Y-51099380D02*
X43450188Y-51004142D01*
X43450188Y-51004142D02*
X43640664Y-50908904D01*
X43640664Y-50908904D02*
X43926379Y-50908904D01*
X43926379Y-50908904D02*
X44116855Y-51004142D01*
X44116855Y-51004142D02*
X44212093Y-51194619D01*
X44212093Y-51194619D02*
X44212093Y-52242238D01*
X45164474Y-50908904D02*
X45164474Y-52242238D01*
X45164474Y-51099380D02*
X45259712Y-51004142D01*
X45259712Y-51004142D02*
X45450188Y-50908904D01*
X45450188Y-50908904D02*
X45735903Y-50908904D01*
X45735903Y-50908904D02*
X45926379Y-51004142D01*
X45926379Y-51004142D02*
X46021617Y-51194619D01*
X46021617Y-51194619D02*
X46021617Y-52242238D01*
X47735903Y-52147000D02*
X47545427Y-52242238D01*
X47545427Y-52242238D02*
X47164474Y-52242238D01*
X47164474Y-52242238D02*
X46973998Y-52147000D01*
X46973998Y-52147000D02*
X46878760Y-51956523D01*
X46878760Y-51956523D02*
X46878760Y-51194619D01*
X46878760Y-51194619D02*
X46973998Y-51004142D01*
X46973998Y-51004142D02*
X47164474Y-50908904D01*
X47164474Y-50908904D02*
X47545427Y-50908904D01*
X47545427Y-50908904D02*
X47735903Y-51004142D01*
X47735903Y-51004142D02*
X47831141Y-51194619D01*
X47831141Y-51194619D02*
X47831141Y-51385095D01*
X47831141Y-51385095D02*
X46878760Y-51575571D01*
X49545427Y-52147000D02*
X49354951Y-52242238D01*
X49354951Y-52242238D02*
X48973998Y-52242238D01*
X48973998Y-52242238D02*
X48783522Y-52147000D01*
X48783522Y-52147000D02*
X48688284Y-52051761D01*
X48688284Y-52051761D02*
X48593046Y-51861285D01*
X48593046Y-51861285D02*
X48593046Y-51289857D01*
X48593046Y-51289857D02*
X48688284Y-51099380D01*
X48688284Y-51099380D02*
X48783522Y-51004142D01*
X48783522Y-51004142D02*
X48973998Y-50908904D01*
X48973998Y-50908904D02*
X49354951Y-50908904D01*
X49354951Y-50908904D02*
X49545427Y-51004142D01*
X50116856Y-50908904D02*
X50878760Y-50908904D01*
X50402570Y-50242238D02*
X50402570Y-51956523D01*
X50402570Y-51956523D02*
X50497808Y-52147000D01*
X50497808Y-52147000D02*
X50688284Y-52242238D01*
X50688284Y-52242238D02*
X50878760Y-52242238D01*
D10*
X68357142Y-35859580D02*
X68309523Y-35907200D01*
X68309523Y-35907200D02*
X68166666Y-35954819D01*
X68166666Y-35954819D02*
X68071428Y-35954819D01*
X68071428Y-35954819D02*
X67928571Y-35907200D01*
X67928571Y-35907200D02*
X67833333Y-35811961D01*
X67833333Y-35811961D02*
X67785714Y-35716723D01*
X67785714Y-35716723D02*
X67738095Y-35526247D01*
X67738095Y-35526247D02*
X67738095Y-35383390D01*
X67738095Y-35383390D02*
X67785714Y-35192914D01*
X67785714Y-35192914D02*
X67833333Y-35097676D01*
X67833333Y-35097676D02*
X67928571Y-35002438D01*
X67928571Y-35002438D02*
X68071428Y-34954819D01*
X68071428Y-34954819D02*
X68166666Y-34954819D01*
X68166666Y-34954819D02*
X68309523Y-35002438D01*
X68309523Y-35002438D02*
X68357142Y-35050057D01*
X68738095Y-35907200D02*
X68880952Y-35954819D01*
X68880952Y-35954819D02*
X69119047Y-35954819D01*
X69119047Y-35954819D02*
X69214285Y-35907200D01*
X69214285Y-35907200D02*
X69261904Y-35859580D01*
X69261904Y-35859580D02*
X69309523Y-35764342D01*
X69309523Y-35764342D02*
X69309523Y-35669104D01*
X69309523Y-35669104D02*
X69261904Y-35573866D01*
X69261904Y-35573866D02*
X69214285Y-35526247D01*
X69214285Y-35526247D02*
X69119047Y-35478628D01*
X69119047Y-35478628D02*
X68928571Y-35431009D01*
X68928571Y-35431009D02*
X68833333Y-35383390D01*
X68833333Y-35383390D02*
X68785714Y-35335771D01*
X68785714Y-35335771D02*
X68738095Y-35240533D01*
X68738095Y-35240533D02*
X68738095Y-35145295D01*
X68738095Y-35145295D02*
X68785714Y-35050057D01*
X68785714Y-35050057D02*
X68833333Y-35002438D01*
X68833333Y-35002438D02*
X68928571Y-34954819D01*
X68928571Y-34954819D02*
X69166666Y-34954819D01*
X69166666Y-34954819D02*
X69309523Y-35002438D01*
X70261904Y-35954819D02*
X69690476Y-35954819D01*
X69976190Y-35954819D02*
X69976190Y-34954819D01*
X69976190Y-34954819D02*
X69880952Y-35097676D01*
X69880952Y-35097676D02*
X69785714Y-35192914D01*
X69785714Y-35192914D02*
X69690476Y-35240533D01*
D12*
X43915237Y-41824318D02*
X43915237Y-40554318D01*
X45245714Y-41703365D02*
X45185238Y-41763842D01*
X45185238Y-41763842D02*
X45003809Y-41824318D01*
X45003809Y-41824318D02*
X44882857Y-41824318D01*
X44882857Y-41824318D02*
X44701428Y-41763842D01*
X44701428Y-41763842D02*
X44580476Y-41642889D01*
X44580476Y-41642889D02*
X44519999Y-41521937D01*
X44519999Y-41521937D02*
X44459523Y-41280032D01*
X44459523Y-41280032D02*
X44459523Y-41098603D01*
X44459523Y-41098603D02*
X44519999Y-40856699D01*
X44519999Y-40856699D02*
X44580476Y-40735746D01*
X44580476Y-40735746D02*
X44701428Y-40614794D01*
X44701428Y-40614794D02*
X44882857Y-40554318D01*
X44882857Y-40554318D02*
X45003809Y-40554318D01*
X45003809Y-40554318D02*
X45185238Y-40614794D01*
X45185238Y-40614794D02*
X45245714Y-40675270D01*
X46455238Y-41824318D02*
X45729523Y-41824318D01*
X46092380Y-41824318D02*
X46092380Y-40554318D01*
X46092380Y-40554318D02*
X45971428Y-40735746D01*
X45971428Y-40735746D02*
X45850476Y-40856699D01*
X45850476Y-40856699D02*
X45729523Y-40917175D01*
D10*
X63083571Y-34954819D02*
X63274047Y-34954819D01*
X63274047Y-34954819D02*
X63369285Y-35002438D01*
X63369285Y-35002438D02*
X63464523Y-35097676D01*
X63464523Y-35097676D02*
X63512142Y-35288152D01*
X63512142Y-35288152D02*
X63512142Y-35621485D01*
X63512142Y-35621485D02*
X63464523Y-35811961D01*
X63464523Y-35811961D02*
X63369285Y-35907200D01*
X63369285Y-35907200D02*
X63274047Y-35954819D01*
X63274047Y-35954819D02*
X63083571Y-35954819D01*
X63083571Y-35954819D02*
X62988333Y-35907200D01*
X62988333Y-35907200D02*
X62893095Y-35811961D01*
X62893095Y-35811961D02*
X62845476Y-35621485D01*
X62845476Y-35621485D02*
X62845476Y-35288152D01*
X62845476Y-35288152D02*
X62893095Y-35097676D01*
X62893095Y-35097676D02*
X62988333Y-35002438D01*
X62988333Y-35002438D02*
X63083571Y-34954819D01*
X64512142Y-35954819D02*
X64178809Y-35478628D01*
X63940714Y-35954819D02*
X63940714Y-34954819D01*
X63940714Y-34954819D02*
X64321666Y-34954819D01*
X64321666Y-34954819D02*
X64416904Y-35002438D01*
X64416904Y-35002438D02*
X64464523Y-35050057D01*
X64464523Y-35050057D02*
X64512142Y-35145295D01*
X64512142Y-35145295D02*
X64512142Y-35288152D01*
X64512142Y-35288152D02*
X64464523Y-35383390D01*
X64464523Y-35383390D02*
X64416904Y-35431009D01*
X64416904Y-35431009D02*
X64321666Y-35478628D01*
X64321666Y-35478628D02*
X63940714Y-35478628D01*
X65464523Y-35002438D02*
X65369285Y-34954819D01*
X65369285Y-34954819D02*
X65226428Y-34954819D01*
X65226428Y-34954819D02*
X65083571Y-35002438D01*
X65083571Y-35002438D02*
X64988333Y-35097676D01*
X64988333Y-35097676D02*
X64940714Y-35192914D01*
X64940714Y-35192914D02*
X64893095Y-35383390D01*
X64893095Y-35383390D02*
X64893095Y-35526247D01*
X64893095Y-35526247D02*
X64940714Y-35716723D01*
X64940714Y-35716723D02*
X64988333Y-35811961D01*
X64988333Y-35811961D02*
X65083571Y-35907200D01*
X65083571Y-35907200D02*
X65226428Y-35954819D01*
X65226428Y-35954819D02*
X65321666Y-35954819D01*
X65321666Y-35954819D02*
X65464523Y-35907200D01*
X65464523Y-35907200D02*
X65512142Y-35859580D01*
X65512142Y-35859580D02*
X65512142Y-35526247D01*
X65512142Y-35526247D02*
X65321666Y-35526247D01*
X66464523Y-35954819D02*
X65893095Y-35954819D01*
X66178809Y-35954819D02*
X66178809Y-34954819D01*
X66178809Y-34954819D02*
X66083571Y-35097676D01*
X66083571Y-35097676D02*
X65988333Y-35192914D01*
X65988333Y-35192914D02*
X65893095Y-35240533D01*
D13*
X70460000Y-30600000D02*
X70460000Y-25400000D01*
X22140000Y-30600000D02*
X70460000Y-30600000D01*
X22140000Y-30600000D02*
X22140000Y-28000000D01*
X22140000Y-28000000D02*
X19540000Y-28000000D01*
X20870000Y-30600000D02*
X19540000Y-30600000D01*
X19540000Y-30600000D02*
X19540000Y-29270000D01*
X19540000Y-28000000D02*
X19540000Y-25400000D01*
X19540000Y-25400000D02*
X70460000Y-25400000D01*
X67775000Y-37465000D02*
X69155000Y-37465000D01*
X67775000Y-38845000D02*
X67775000Y-37465000D01*
X67775000Y-40115000D02*
X67775000Y-45305000D01*
X67775000Y-40115000D02*
X70535000Y-40115000D01*
X67775000Y-45305000D02*
X70535000Y-45305000D01*
X70535000Y-40115000D02*
X70535000Y-45305000D01*
D14*
X41680000Y-38670000D02*
X43205000Y-38670000D01*
X43555000Y-38800000D02*
X46755000Y-38800000D01*
X43555000Y-43700000D02*
X43555000Y-38800000D01*
X46755000Y-38800000D02*
X46755000Y-43700000D01*
X46755000Y-43700000D02*
X43555000Y-43700000D01*
D13*
X19775000Y-36465000D02*
X21155000Y-36465000D01*
X19775000Y-37845000D02*
X19775000Y-36465000D01*
X19775000Y-39115000D02*
X19775000Y-46845000D01*
X19775000Y-39115000D02*
X22425000Y-39115000D01*
X19775000Y-46845000D02*
X25075000Y-46845000D01*
X22425000Y-36465000D02*
X25075000Y-36465000D01*
X22425000Y-39115000D02*
X22425000Y-36465000D01*
X25075000Y-36465000D02*
X25075000Y-46845000D01*
X63275000Y-37465000D02*
X64655000Y-37465000D01*
X63275000Y-38845000D02*
X63275000Y-37465000D01*
X63275000Y-40115000D02*
X63275000Y-45305000D01*
X63275000Y-40115000D02*
X66035000Y-40115000D01*
X63275000Y-45305000D02*
X66035000Y-45305000D01*
X66035000Y-40115000D02*
X66035000Y-45305000D01*
X74209227Y-41156454D02*
X74209227Y-41678958D01*
X75679227Y-41156454D02*
X75679227Y-41678958D01*
M02*
