%TF.GenerationSoftware,KiCad,Pcbnew,9.0.3*%
%TF.CreationDate,2026-06-25T19:52:52-04:00*%
%TF.ProjectId,SOP8HatZero,534f5038-4861-4745-9a65-726f2e6b6963,rev?*%
%TF.SameCoordinates,Original*%
%TF.FileFunction,Paste,Bot*%
%TF.FilePolarity,Positive*%
%FSLAX46Y46*%
G04 Gerber Fmt 4.6, Leading zero omitted, Abs format (unit mm)*
G04 Created by KiCad (PCBNEW 9.0.3) date 2026-06-25 19:52:52*
%MOMM*%
%LPD*%
G01*
G04 APERTURE LIST*
%ADD10R,1.270000X1.680000*%
G04 APERTURE END LIST*
D10*
X20870000Y-30720000D03*
X20870000Y-25280000D03*
X23410000Y-30720000D03*
X23410000Y-25280000D03*
X25950000Y-30720000D03*
X25950000Y-25280000D03*
X28490000Y-30720000D03*
X28490000Y-25280000D03*
X31030000Y-30720000D03*
X31030000Y-25280000D03*
X33570000Y-30720000D03*
X33570000Y-25280000D03*
X36110000Y-30720000D03*
X36110000Y-25280000D03*
X38650000Y-30720000D03*
X38650000Y-25280000D03*
X41190000Y-30720000D03*
X41190000Y-25280000D03*
X43730000Y-30720000D03*
X43730000Y-25280000D03*
X46270000Y-30720000D03*
X46270000Y-25280000D03*
X48810000Y-30720000D03*
X48810000Y-25280000D03*
X51350000Y-30720000D03*
X51350000Y-25280000D03*
X53890000Y-30720000D03*
X53890000Y-25280000D03*
X56430000Y-30720000D03*
X56430000Y-25280000D03*
X58970000Y-30720000D03*
X58970000Y-25280000D03*
X61510000Y-30720000D03*
X61510000Y-25280000D03*
X64050000Y-30720000D03*
X64050000Y-25280000D03*
X66590000Y-30720000D03*
X66590000Y-25280000D03*
X69130000Y-30720000D03*
X69130000Y-25280000D03*
M02*
