%TF.GenerationSoftware,KiCad,Pcbnew,9.0.3*%
%TF.CreationDate,2026-06-25T19:52:52-04:00*%
%TF.ProjectId,SOP8HatZero,534f5038-4861-4745-9a65-726f2e6b6963,rev?*%
%TF.SameCoordinates,Original*%
%TF.FileFunction,Copper,L1,Top*%
%TF.FilePolarity,Positive*%
%FSLAX46Y46*%
G04 Gerber Fmt 4.6, Leading zero omitted, Abs format (unit mm)*
G04 Created by KiCad (PCBNEW 9.0.3) date 2026-06-25 19:52:52*
%MOMM*%
%LPD*%
G01*
G04 APERTURE LIST*
G04 Aperture macros list*
%AMRoundRect*
0 Rectangle with rounded corners*
0 $1 Rounding radius*
0 $2 $3 $4 $5 $6 $7 $8 $9 X,Y pos of 4 corners*
0 Add a 4 corners polygon primitive as box body*
4,1,4,$2,$3,$4,$5,$6,$7,$8,$9,$2,$3,0*
0 Add four circle primitives for the rounded corners*
1,1,$1+$1,$2,$3*
1,1,$1+$1,$4,$5*
1,1,$1+$1,$6,$7*
1,1,$1+$1,$8,$9*
0 Add four rect primitives between the rounded corners*
20,1,$1+$1,$2,$3,$4,$5,0*
20,1,$1+$1,$4,$5,$6,$7,0*
20,1,$1+$1,$6,$7,$8,$9,0*
20,1,$1+$1,$8,$9,$2,$3,0*%
G04 Aperture macros list end*
%TA.AperFunction,ComponentPad*%
%ADD10O,1.700000X1.700000*%
%TD*%
%TA.AperFunction,ComponentPad*%
%ADD11R,1.700000X1.700000*%
%TD*%
%TA.AperFunction,ComponentPad*%
%ADD12C,1.700000*%
%TD*%
%TA.AperFunction,SMDPad,CuDef*%
%ADD13R,1.525000X0.650000*%
%TD*%
%TA.AperFunction,SMDPad,CuDef*%
%ADD14RoundRect,0.250000X-0.475000X0.337500X-0.475000X-0.337500X0.475000X-0.337500X0.475000X0.337500X0*%
%TD*%
%TA.AperFunction,ViaPad*%
%ADD15C,0.600000*%
%TD*%
%TA.AperFunction,Conductor*%
%ADD16C,0.250000*%
%TD*%
G04 APERTURE END LIST*
D10*
X69130000Y-26730000D03*
X69130000Y-29270000D03*
X66590000Y-26730000D03*
X66590000Y-29270000D03*
X64050000Y-26730000D03*
X64050000Y-29270000D03*
X61510000Y-26730000D03*
X61510000Y-29270000D03*
X58970000Y-26730000D03*
X58970000Y-29270000D03*
X56430000Y-26730000D03*
X56430000Y-29270000D03*
X53890000Y-26730000D03*
X53890000Y-29270000D03*
X51350000Y-26730000D03*
X51350000Y-29270000D03*
X48810000Y-26730000D03*
X48810000Y-29270000D03*
X46270000Y-26730000D03*
X46270000Y-29270000D03*
X43730000Y-26730000D03*
X43730000Y-29270000D03*
X41190000Y-26730000D03*
X41190000Y-29270000D03*
X38650000Y-26730000D03*
X38650000Y-29270000D03*
X36110000Y-26730000D03*
X36110000Y-29270000D03*
X33570000Y-26730000D03*
X33570000Y-29270000D03*
X31030000Y-26730000D03*
X31030000Y-29270000D03*
X28490000Y-26730000D03*
X28490000Y-29270000D03*
X25950000Y-26730000D03*
X25950000Y-29270000D03*
X23410000Y-26730000D03*
X23410000Y-29270000D03*
X20870000Y-26730000D03*
D11*
X20870000Y-29270000D03*
X69155000Y-38845000D03*
D12*
X69155000Y-41385000D03*
X69155000Y-43925000D03*
D13*
X42443000Y-39345000D03*
X42443000Y-40615000D03*
X42443000Y-41885000D03*
X42443000Y-43155000D03*
X47867000Y-43155000D03*
X47867000Y-41885000D03*
X47867000Y-40615000D03*
X47867000Y-39345000D03*
D11*
X21155000Y-37845000D03*
D12*
X21155000Y-40385000D03*
X21155000Y-42925000D03*
X21155000Y-45465000D03*
X23695000Y-45465000D03*
X23695000Y-42925000D03*
X23695000Y-40385000D03*
X23695000Y-37845000D03*
D11*
X64655000Y-38845000D03*
D12*
X64655000Y-41385000D03*
X64655000Y-43925000D03*
D14*
X74944227Y-40380206D03*
X74944227Y-42455206D03*
D15*
X49500000Y-41885000D03*
X45000000Y-38000000D03*
X48810000Y-32690000D03*
X46000000Y-38000000D03*
X40000000Y-39990000D03*
X49500000Y-40000000D03*
X50500000Y-39345000D03*
X51370863Y-43155000D03*
D16*
X64155000Y-41885000D02*
X64655000Y-41385000D01*
X49500000Y-41885000D02*
X64155000Y-41885000D01*
X47867000Y-41885000D02*
X49500000Y-41885000D01*
X23207884Y-41561000D02*
X22991884Y-41345000D01*
X22991884Y-41345000D02*
X22655000Y-41345000D01*
X26677880Y-41367880D02*
X24375236Y-41367880D01*
X21155000Y-42845000D02*
X21155000Y-42925000D01*
X24182116Y-41561000D02*
X23207884Y-41561000D01*
X24375236Y-41367880D02*
X24182116Y-41561000D01*
X42885000Y-41885000D02*
X45000000Y-39770000D01*
X27195000Y-41885000D02*
X26677880Y-41367880D01*
X42443000Y-41885000D02*
X42885000Y-41885000D01*
X42443000Y-41885000D02*
X27195000Y-41885000D01*
X22655000Y-41345000D02*
X21155000Y-42845000D01*
X45000000Y-39770000D02*
X45000000Y-38000000D01*
X44000000Y-39495500D02*
X42880500Y-40615000D01*
X44549000Y-38434298D02*
X44549000Y-39451000D01*
X44504500Y-39495500D02*
X44000000Y-39495500D01*
X48810000Y-35034398D02*
X46364848Y-37479550D01*
X44374000Y-37740702D02*
X44374000Y-38259298D01*
X46364848Y-37479550D02*
X46259298Y-37374000D01*
X42443000Y-40615000D02*
X26925000Y-40615000D01*
X26925000Y-40615000D02*
X25519000Y-39209000D01*
X45740702Y-37374000D02*
X45500000Y-37614702D01*
X22331000Y-39209000D02*
X21155000Y-40385000D01*
X44549000Y-39451000D02*
X44504500Y-39495500D01*
X45500000Y-37614702D02*
X45259298Y-37374000D01*
X46259298Y-37374000D02*
X45740702Y-37374000D01*
X44740702Y-37374000D02*
X44374000Y-37740702D01*
X25519000Y-39209000D02*
X22331000Y-39209000D01*
X48810000Y-32690000D02*
X48810000Y-35034398D01*
X42880500Y-40615000D02*
X42443000Y-40615000D01*
X44374000Y-38259298D02*
X44549000Y-38434298D01*
X45259298Y-37374000D02*
X44740702Y-37374000D01*
X42845000Y-43155000D02*
X46000000Y-40000000D01*
X46000000Y-40000000D02*
X46000000Y-38000000D01*
X42443000Y-43155000D02*
X27155000Y-43155000D01*
X22989442Y-44070558D02*
X21595000Y-45465000D01*
X26021000Y-44289000D02*
X23207884Y-44289000D01*
X23207884Y-44289000D02*
X22989442Y-44070558D01*
X27155000Y-43155000D02*
X26021000Y-44289000D01*
X21595000Y-45465000D02*
X21155000Y-45465000D01*
X42443000Y-43155000D02*
X42845000Y-43155000D01*
X40645000Y-39345000D02*
X40000000Y-39990000D01*
X49521000Y-40021000D02*
X67791000Y-40021000D01*
X42443000Y-39345000D02*
X40645000Y-39345000D01*
X67791000Y-40021000D02*
X69155000Y-41385000D01*
X49500000Y-40000000D02*
X49521000Y-40021000D01*
X74944227Y-40380206D02*
X70690206Y-40380206D01*
X70690206Y-40380206D02*
X69155000Y-38845000D01*
X50500000Y-39345000D02*
X64155000Y-39345000D01*
X64155000Y-39345000D02*
X64655000Y-38845000D01*
X64655000Y-38845000D02*
X69155000Y-38845000D01*
X47867000Y-39345000D02*
X50500000Y-39345000D01*
X69155000Y-38845000D02*
X69655000Y-38845000D01*
X63735000Y-43925000D02*
X64655000Y-43925000D01*
X47867000Y-43155000D02*
X51370863Y-43155000D01*
X51370863Y-43155000D02*
X62965000Y-43155000D01*
X62965000Y-43155000D02*
X63735000Y-43925000D01*
X74944227Y-42455206D02*
X70624794Y-42455206D01*
X64655000Y-43925000D02*
X69155000Y-43925000D01*
X70624794Y-42455206D02*
X69155000Y-43925000D01*
M02*
