M48
; DRILL file {KiCad 9.0.3} date 2026-06-25T19:52:55-0400
; FORMAT={-:-/ absolute / metric / decimal}
; #@! TF.CreationDate,2026-06-25T19:52:55-04:00
; #@! TF.GenerationSoftware,Kicad,Pcbnew,9.0.3
; #@! TF.FileFunction,MixedPlating,1,2
FMAT,2
METRIC
; #@! TA.AperFunction,Plated,PTH,ViaDrill
T1C0.400
; #@! TA.AperFunction,Plated,PTH,ComponentDrill
T2C1.000
; #@! TA.AperFunction,NonPlated,NPTH,ComponentDrill
T3C0.970
; #@! TA.AperFunction,NonPlated,NPTH,ComponentDrill
T4C1.780
%
G90
G05
T1
X40.0Y-39.99
X45.0Y-38.0
X46.0Y-38.0
X48.81Y-32.69
X49.5Y-40.0
X49.5Y-41.885
X50.5Y-39.345
X51.371Y-43.155
T2
X20.87Y-26.73
X20.87Y-29.27
X21.155Y-37.845
X21.155Y-40.385
X21.155Y-42.925
X21.155Y-45.465
X23.41Y-26.73
X23.41Y-29.27
X23.695Y-37.845
X23.695Y-40.385
X23.695Y-42.925
X23.695Y-45.465
X25.95Y-26.73
X25.95Y-29.27
X28.49Y-26.73
X28.49Y-29.27
X31.03Y-26.73
X31.03Y-29.27
X33.57Y-26.73
X33.57Y-29.27
X36.11Y-26.73
X36.11Y-29.27
X38.65Y-26.73
X38.65Y-29.27
X41.19Y-26.73
X41.19Y-29.27
X43.73Y-26.73
X43.73Y-29.27
X46.27Y-26.73
X46.27Y-29.27
X48.81Y-26.73
X48.81Y-29.27
X51.35Y-26.73
X51.35Y-29.27
X53.89Y-26.73
X53.89Y-29.27
X56.43Y-26.73
X56.43Y-29.27
X58.97Y-26.73
X58.97Y-29.27
X61.51Y-26.73
X61.51Y-29.27
X64.05Y-26.73
X64.05Y-29.27
X64.655Y-38.845
X64.655Y-41.385
X64.655Y-43.925
X66.59Y-26.73
X66.59Y-29.27
X69.13Y-26.73
X69.13Y-29.27
X69.155Y-38.845
X69.155Y-41.385
X69.155Y-43.925
T3
X20.87Y-26.73
X20.87Y-29.27
X23.41Y-26.73
X23.41Y-29.27
X25.95Y-26.73
X25.95Y-29.27
X28.49Y-26.73
X28.49Y-29.27
X31.03Y-26.73
X31.03Y-29.27
X33.57Y-26.73
X33.57Y-29.27
X36.11Y-26.73
X36.11Y-29.27
X38.65Y-26.73
X38.65Y-29.27
X41.19Y-26.73
X41.19Y-29.27
X43.73Y-26.73
X43.73Y-29.27
X46.27Y-26.73
X46.27Y-29.27
X48.81Y-26.73
X48.81Y-29.27
X51.35Y-26.73
X51.35Y-29.27
X53.89Y-26.73
X53.89Y-29.27
X56.43Y-26.73
X56.43Y-29.27
X58.97Y-26.73
X58.97Y-29.27
X61.51Y-26.73
X61.51Y-29.27
X64.05Y-26.73
X64.05Y-29.27
X66.59Y-26.73
X66.59Y-29.27
X69.13Y-26.73
X69.13Y-29.27
T4
X22.14Y-28.0
X67.86Y-28.0
M30
